<?xml version="1.0" encoding="UTF-8"?>
<svg xmlns="http://www.w3.org/2000/svg" xmlns:xlink="http://www.w3.org/1999/xlink" width="650.24pt" height="388.929pt" viewBox="0 0 650.24 388.929">
<defs>
<clipPath id="clip-0">
<path clip-rule="nonzero" d="M 439 144 L 649.480469 144 L 649.480469 336 L 439 336 Z M 439 144 "/>
</clipPath>
<clipPath id="clip-1">
<path clip-rule="nonzero" d="M 0 381 L 649.480469 381 L 649.480469 388.667969 L 0 388.667969 Z M 0 381 "/>
</clipPath>
</defs>
<g clip-path="url(#clip-0)">
<path fill-rule="nonzero" fill="rgb(43.147278%, 42.112732%, 42.370605%)" fill-opacity="1" d="M 444.878906 301.738281 C 453.234375 319.613281 473.605469 334.929688 496.398438 335.746094 C 498.960938 335.839844 501.527344 335.859375 504.09375 335.859375 C 547.027344 335.867188 589.960938 335.863281 632.894531 335.863281 L 632.894531 335.867188 L 649.480469 335.867188 L 649.480469 218.074219 L 632.894531 218.074219 C 612.441406 218.074219 591.988281 218.074219 571.53125 218.074219 L 571.53125 218.027344 L 544.308594 218.027344 L 544.308594 262.878906 L 571.53125 262.683594 C 576.085938 262.683594 580.640625 262.6875 585.195312 262.691406 L 585.195312 262.6875 L 605.136719 262.6875 L 605.136719 270.265625 L 605.128906 270.265625 C 605.132812 271.898438 605.128906 273.53125 605.128906 275.164062 L 605.136719 275.164062 L 605.136719 291.390625 L 574.804688 291.390625 L 574.804688 291.386719 C 560.828125 291.390625 546.855469 291.390625 532.882812 291.390625 C 522.832031 291.390625 512.78125 291.332031 502.734375 291.429688 C 499.910156 291.457031 497.171875 291.042969 494.5 290.339844 C 489.367188 288.984375 485.949219 285.832031 484.644531 280.476562 C 484.027344 277.9375 483.898438 275.417969 483.898438 272.851562 C 483.90625 251.246094 483.902344 229.640625 483.902344 208.03125 C 483.902344 207.390625 483.9375 206.746094 483.898438 206.109375 C 483.777344 204.15625 484.234375 202.296875 484.671875 200.414062 C 486.054688 194.488281 489.996094 191.347656 495.738281 190.265625 C 499.316406 189.59375 502.953125 189.511719 506.59375 189.511719 C 551.28125 189.535156 595.972656 189.527344 640.660156 189.527344 C 642.796875 189.527344 644.9375 189.539062 647.074219 189.480469 L 649.203125 189.480469 C 649.292969 175.800781 649.371094 161.078125 649.421875 147.398438 C 649.421875 146.796875 649.417969 147.90625 649.421875 144.921875 C 646.890625 144.90625 644.25 144.882812 642.121094 144.882812 C 596.578125 144.882812 551.035156 144.878906 505.492188 144.894531 C 502.070312 144.898438 498.652344 145.109375 495.234375 145.183594 C 490.925781 145.28125 486.757812 146.226562 482.652344 147.421875 C 470.160156 151.058594 459.9375 158.175781 451.746094 168.195312 C 446.539062 174.566406 442.988281 181.804688 441.0625 189.847656 C 439.761719 195.289062 439.144531 200.777344 439.144531 206.355469 C 439.152344 228.390625 439.15625 250.425781 439.140625 272.460938 C 439.136719 276.3125 439.292969 280.140625 439.757812 283.976562 C 440.511719 290.191406 442.230469 296.074219 444.878906 301.738281 "/>
</g>
<path fill-rule="nonzero" fill="rgb(42.974854%, 41.937256%, 42.195129%)" fill-opacity="1" d="M 210.410156 279.578125 C 211.03125 288.875 213.339844 297.6875 218.09375 305.78125 C 221.488281 311.5625 225.839844 316.535156 230.898438 320.882812 C 241.632812 330.117188 254.023438 335.261719 268.246094 335.765625 C 270.59375 335.847656 272.949219 335.859375 275.300781 335.859375 C 300.128906 335.863281 324.960938 335.863281 349.792969 335.863281 L 349.792969 335.867188 L 420.835938 335.867188 L 420.835938 291.386719 L 349.792969 291.386719 C 325.003906 291.386719 300.210938 291.382812 275.421875 291.417969 C 272.1875 291.425781 269.007812 291.183594 265.890625 290.40625 C 259.898438 288.902344 256.152344 285.113281 255.332031 278.246094 C 255.128906 276.554688 255.160156 274.828125 255.160156 273.121094 C 255.148438 251.296875 255.148438 229.476562 255.160156 207.652344 C 255.160156 205.941406 255.195312 204.226562 255.332031 202.523438 C 255.523438 200.140625 256.355469 197.960938 257.671875 195.960938 C 259.953125 192.507812 263.304688 190.808594 267.257812 190.203125 C 270.851562 189.652344 274.480469 189.511719 278.121094 189.511719 C 313.21875 189.53125 348.3125 189.527344 383.410156 189.523438 L 383.410156 189.558594 L 420.835938 189.558594 L 420.835938 144.808594 L 383.410156 144.808594 L 383.410156 144.894531 C 347.585938 144.886719 311.761719 144.882812 275.9375 144.882812 C 274.441406 144.882812 272.941406 144.820312 271.449219 144.917969 C 267.824219 145.152344 264.148438 145.152344 260.59375 145.796875 C 244.773438 148.660156 231.953125 156.644531 222.054688 169.246094 C 216.410156 176.425781 212.960938 184.621094 211.355469 193.648438 C 210.449219 198.742188 210.269531 203.84375 210.269531 208.980469 C 210.265625 229.949219 210.265625 250.914062 210.273438 271.878906 C 210.277344 274.449219 210.238281 277.019531 210.410156 279.578125 "/>
<path fill-rule="nonzero" fill="rgb(42.457581%, 41.410828%, 41.670227%)" fill-opacity="1" d="M 142.742188 100.582031 L 130.515625 100.582031 L 130.515625 92.574219 L 130.519531 92.574219 C 130.492188 87.832031 130.609375 83.027344 130.546875 78.484375 C 130.457031 71.4375 130.800781 68.050781 130.515625 60.992188 C 129.71875 60.417969 49.796875 7.933594 49.796875 7.933594 L -0.125 37.320312 L -0.125 47.570312 C -0.125 160.683594 -0.125 273.792969 -0.125 386.90625 C 2.0625 386.269531 4.414062 386.570312 6.574219 387.226562 L 6.574219 41.636719 L 47.160156 18.351562 L 47.160156 336.585938 L 53.347656 336.585938 L 53.347656 18.554688 L 124.300781 64.515625 C 124.300781 73.453125 124.289062 92.65625 124.289062 92.65625 L 124.300781 100.582031 L 121.703125 100.582031 C 121.140625 100.617188 120.589844 100.601562 120.042969 100.582031 L 115.605469 100.582031 L 115.605469 100.574219 C 111.660156 100.585938 107.714844 100.585938 103.769531 100.59375 C 103.613281 100.597656 103.460938 100.609375 103.308594 100.628906 L 101.492188 100.628906 L 101.492188 101.882812 C 101.480469 101.902344 101.46875 101.917969 101.457031 101.9375 C 101.484375 102.191406 101.480469 102.4375 101.492188 102.691406 L 101.492188 104.382812 C 101.308594 107.902344 100.070312 111.3125 98.558594 114.65625 C 96.484375 119.234375 93.84375 123.542969 90.5 127.296875 C 86.839844 131.40625 82.671875 134.875 77.5 137.003906 C 75.175781 137.957031 72.886719 138.925781 70.445312 139.566406 C 68.476562 140.039062 66.480469 140.25 66.480469 140.25 C 66.480469 140.25 66.453125 190.355469 66.480469 190.792969 L 72.320312 190.925781 C 77.015625 191.109375 81.714844 191.246094 86.414062 191.449219 C 87.664062 191.503906 88.890625 191.675781 90.101562 191.976562 C 92.957031 192.6875 94.960938 195.273438 94.890625 198.21875 C 94.875 198.796875 94.855469 199.378906 94.855469 199.957031 C 94.871094 234.617188 94.925781 269.28125 94.828125 303.941406 C 94.828125 305.164062 94.84375 306.382812 94.851562 307.605469 L 94.851562 336.585938 L 143.542969 336.585938 L 143.542969 329.214844 C 143.542969 329.0625 143.539062 328.910156 143.539062 328.753906 C 143.535156 328.542969 143.535156 328.328125 143.535156 328.113281 C 143.535156 327.898438 143.535156 327.6875 143.535156 327.472656 L 143.535156 326.832031 C 143.535156 326.617188 143.535156 326.402344 143.535156 326.1875 L 143.535156 115.503906 L 143.476562 115.570312 L 143.476562 108.175781 L 174.371094 122.785156 L 174.375 336.585938 L 177.632812 336.585938 C 177.742188 336.589844 177.847656 336.585938 177.953125 336.585938 L 180.585938 336.585938 L 180.585938 118.40625 Z M 142.742188 100.582031 "/>
<g clip-path="url(#clip-1)">
<path fill-rule="nonzero" fill="rgb(41.940308%, 40.884399%, 41.146851%)" fill-opacity="1" d="M -0.125 388.667969 L -0.125 381.144531 L 649.714844 381.144531 L 649.714844 388.667969 L 28.324219 388.667969 "/>
</g>
</svg>
