<?xml version="1.0" encoding="UTF-8"?>
<svg id="Layer_2" data-name="Layer 2" xmlns="http://www.w3.org/2000/svg" xmlns:xlink="http://www.w3.org/1999/xlink" viewBox="0 0 498 367.38">
  <defs>
    <style>
      .cls-1, .cls-2, .cls-3, .cls-4, .cls-5, .cls-6 {
        fill: none;
      }

      .cls-2 {
        stroke-width: .67px;
      }

      .cls-2, .cls-3, .cls-4, .cls-5 {
        stroke-linejoin: round;
      }

      .cls-2, .cls-3, .cls-4, .cls-5, .cls-6 {
        stroke: #00a1e0;
        stroke-linecap: round;
      }

      .cls-3 {
        stroke-width: .67px;
      }

      .cls-4 {
        stroke-width: .67px;
      }

      .cls-5 {
        stroke-width: .67px;
      }

      .cls-7 {
        clip-path: url(#clippath-1);
      }

      .cls-8 {
        clip-path: url(#clippath-2);
      }

      .cls-9 {
        fill: #00a1e0;
      }

      .cls-6 {
        stroke-miterlimit: 10;
      }

      .cls-10 {
        clip-path: url(#clippath);
      }
    </style>
    <clipPath id="clippath">
      <rect class="cls-1" width="498" height="367.38"/>
    </clipPath>
    <clipPath id="clippath-1">
      <rect class="cls-1" width="498" height="367.38"/>
    </clipPath>
    <clipPath id="clippath-2">
      <rect class="cls-1" x="0" y="0" width="498" height="367.38"/>
    </clipPath>
  </defs>
  <g id="Layer_1-2" data-name="Layer 1">
    <g class="cls-10">
      <g class="cls-7">
        <g class="cls-8">
          <polyline class="cls-2" points="377.55 344.49 364.8 343.93 353.16 342.27 332.09 337.84 313.8 331.18 298.83 323.42 286.64 315.66 277.77 309.01 272.22 304.02 271.12 302.36 270.01 301.25 267.79 299.03 297.72 259.12 301.05 262.44 302.71 264.11 307.15 267.43 313.8 272.98 323.22 279.07 334.31 284.62 347.62 290.16 362.03 293.49 378.11 295.15 390.3 294.04 400.83 291.27 409.7 287.39 416.36 281.85 421.9 275.19 425.78 267.99 428 260.78 428.55 253.02 427.44 243.04 423.56 234.17 417.46 226.41 409.7 219.76 399.73 213.66 389.19 207.56 364.8 196.48 333.2 182.06 318.24 173.19 304.93 163.77 293.29 152.13 284.42 138.27 280.54 130.51 278.32 121.64 276.66 112.77 276.1 102.79 278.32 83.94 284.42 66.2 293.84 50.68 306.59 37.38 322.12 26.29 339.86 17.97 359.81 12.43 381.99 10.77 403.05 12.43 421.34 15.76 436.87 20.75 449.62 26.84 460.15 32.94 467.36 37.93 471.79 41.81 474.01 43.47"/>
          <path class="cls-3" d="M376.7,343.99c30.81-.04,57.15-9.49,76.16-27.33"/>
          <polyline class="cls-2" points="328.77 101.68 330.43 111.1 333.76 118.87 339.86 126.07 347.06 132.17 356.49 138.27 366.46 143.26 389.75 153.79 421.9 168.2 437.42 176.52 451.28 186.5 464.58 200.36 474.01 215.32 479.55 232.51 481.21 251.36 479.55 270.2 474.01 287.39 465.69 303.47 453.5 316.77"/>
          <path class="cls-4" d="M342.96,72.71c-9.34,7.7-14.48,17.99-14.47,28.96"/>
          <path class="cls-5" d="M381.68,59.75c-14.92-.01-28.56,4.46-38.38,12.59"/>
          <polyline class="cls-2" points="474.01 43.47 476.23 45.69 451.83 89.49 447.95 86.16 446.85 85.05 442.96 81.72 436.87 77.84 429.11 72.85 419.68 68.42 408.04 63.98 395.84 61.21 381.99 60.1"/>
          <line class="cls-2" x1="381.99" y1="10.77" x2="381.99" y2="10.77"/>
          <line class="cls-2" x1="276.1" y1="102.79" x2="276.1" y2="102.79"/>
          <line class="cls-2" x1="364.8" y1="196.48" x2="364.8" y2="196.48"/>
          <line class="cls-2" x1="428.55" y1="253.02" x2="428.55" y2="253.02"/>
          <line class="cls-2" x1="378.11" y1="295.15" x2="378.11" y2="295.15"/>
          <line class="cls-2" x1="301.05" y1="262.44" x2="301.05" y2="262.44"/>
          <line class="cls-2" x1="297.72" y1="259.12" x2="297.72" y2="259.12"/>
          <line class="cls-2" x1="267.79" y1="299.03" x2="267.79" y2="299.03"/>
          <line class="cls-2" x1="270.01" y1="301.25" x2="270.01" y2="301.25"/>
          <line class="cls-2" x1="377.55" y1="344.49" x2="377.55" y2="344.49"/>
          <line class="cls-2" x1="453.5" y1="316.77" x2="453.5" y2="316.77"/>
          <line class="cls-2" x1="481.21" y1="251.36" x2="481.21" y2="251.36"/>
          <line class="cls-2" x1="451.28" y1="186.5" x2="451.28" y2="186.5"/>
          <line class="cls-2" x1="389.75" y1="153.79" x2="389.75" y2="153.79"/>
          <line class="cls-2" x1="328.77" y1="101.68" x2="328.77" y2="101.68"/>
          <line class="cls-2" x1="343.18" y1="72.85" x2="343.18" y2="72.85"/>
          <line class="cls-2" x1="381.99" y1="60.1" x2="381.99" y2="60.1"/>
          <line class="cls-2" x1="447.95" y1="86.16" x2="447.95" y2="86.16"/>
          <line class="cls-2" x1="451.83" y1="89.49" x2="451.83" y2="89.49"/>
          <line class="cls-2" x1="476.23" y1="45.69" x2="476.23" y2="45.69"/>
          <polyline class="cls-2" points="29.42 199.25 185.19 199.25 185.19 152.68 29.42 152.68 29.42 199.25"/>
          <line class="cls-2" x1="185.19" y1="199.25" x2="185.19" y2="199.25"/>
          <line class="cls-2" x1="185.19" y1="152.68" x2="185.19" y2="152.68"/>
          <line class="cls-2" x1="29.42" y1="152.68" x2="29.42" y2="152.68"/>
          <polyline class="cls-2" points="231.2 292.38 29.42 292.38 29.42 338.94 231.2 338.94 231.2 292.38"/>
          <line class="cls-2" x1="29.42" y1="292.38" x2="29.42" y2="292.38"/>
          <line class="cls-2" x1="29.42" y1="338.94" x2="29.42" y2="338.94"/>
          <line class="cls-2" x1="231.2" y1="338.94" x2="231.2" y2="338.94"/>
          <polyline class="cls-2" points="231.2 16.31 29.42 16.31 29.42 62.88 231.2 62.88 231.2 16.31"/>
          <line class="cls-2" x1="29.42" y1="16.31" x2="29.42" y2="16.31"/>
          <line class="cls-2" x1="29.42" y1="62.88" x2="29.42" y2="62.88"/>
          <line class="cls-2" x1="231.2" y1="62.88" x2="231.2" y2="62.88"/>
          <polygon class="cls-9" points="381.99 10.77 392.52 11.32 373.12 11.32 381.99 10.77"/>
          <polygon class="cls-6" points="381.99 10.77 392.52 11.32 373.12 11.32 381.99 10.77"/>
          <path class="cls-9" d="M370.9,11.32l32.15,1.11h-39.36l7.21-1.11ZM393.63,11.32h-22.73l32.15,1.11-9.42-1.11Z"/>
          <path class="cls-6" d="M370.9,11.32l32.15,1.11h-39.36l7.21-1.11ZM393.63,11.32h-22.73l32.15,1.11-9.42-1.11Z"/>
          <path class="cls-9" d="M359.81,12.43l52.66,1.11h-57.65l4.99-1.11ZM405.27,12.43h-45.46l52.66,1.11-7.21-1.11Z"/>
          <path class="cls-6" d="M359.81,12.43l52.66,1.11h-57.65l4.99-1.11ZM405.27,12.43h-45.46l52.66,1.11-7.21-1.11Z"/>
          <path class="cls-9" d="M354.82,13.54l62.09,1.11h-67.08l4.99-1.11ZM412.48,13.54h-57.65l62.09,1.11-4.43-1.11Z"/>
          <path class="cls-6" d="M354.82,13.54l62.09,1.11h-67.08l4.99-1.11ZM412.48,13.54h-57.65l62.09,1.11-4.43-1.11Z"/>
          <path class="cls-9" d="M349.83,14.65l71.51,1.11h-74.84l3.33-1.11ZM416.91,14.65h-67.08l71.51,1.11-4.43-1.11Z"/>
          <path class="cls-6" d="M349.83,14.65l71.51,1.11h-74.84l3.33-1.11ZM416.91,14.65h-67.08l71.51,1.11-4.43-1.11Z"/>
          <path class="cls-9" d="M346.51,15.76l81.49,2.22h-88.14l6.65-2.22ZM421.34,15.76h-74.84l81.49,2.22-6.65-2.22Z"/>
          <path class="cls-6" d="M346.51,15.76l81.49,2.22h-88.14l6.65-2.22ZM421.34,15.76h-74.84l81.49,2.22-6.65-2.22Z"/>
          <path class="cls-9" d="M339.3,17.97l97.57,2.77h-104.22l6.65-2.77ZM429.11,17.97h-89.8l97.57,2.77-7.76-2.77Z"/>
          <path class="cls-6" d="M339.3,17.97l97.57,2.77h-104.22l6.65-2.77ZM429.11,17.97h-89.8l97.57,2.77-7.76-2.77Z"/>
          <path class="cls-9" d="M332.65,20.75l105.88.55h-108.1l2.22-.55ZM436.87,20.75h-104.22l105.88.55-1.66-.55Z"/>
          <path class="cls-6" d="M332.65,20.75l105.88.55h-108.1l2.22-.55ZM436.87,20.75h-104.22l105.88.55-1.66-.55Z"/>
          <path class="cls-9" d="M330.43,21.3l113.09,2.22h-116.97l3.88-2.22ZM438.53,21.3h-108.1l113.09,2.22-4.99-2.22Z"/>
          <path class="cls-6" d="M330.43,21.3l113.09,2.22h-116.97l3.88-2.22ZM438.53,21.3h-108.1l113.09,2.22-4.99-2.22Z"/>
          <path class="cls-9" d="M326.55,23.52l121.96,2.77h-126.39l4.43-2.77ZM443.52,23.52h-116.97l121.96,2.77-4.99-2.77Z"/>
          <path class="cls-6" d="M326.55,23.52l121.96,2.77h-126.39l4.43-2.77ZM443.52,23.52h-116.97l121.96,2.77-4.99-2.77Z"/>
          <path class="cls-9" d="M322.12,26.29l127.5.55h-128.61l1.11-.55ZM448.51,26.29h-126.39l127.5.55-1.11-.55Z"/>
          <path class="cls-6" d="M322.12,26.29l127.5.55h-128.61l1.11-.55ZM448.51,26.29h-126.39l127.5.55-1.11-.55Z"/>
          <path class="cls-9" d="M321.01,26.84l134.15,2.77h-139.14l4.99-2.77ZM449.62,26.84h-128.61l134.15,2.77-5.54-2.77Z"/>
          <path class="cls-6" d="M321.01,26.84l134.15,2.77h-139.14l4.99-2.77ZM449.62,26.84h-128.61l134.15,2.77-5.54-2.77Z"/>
          <path class="cls-9" d="M316.02,29.61l141.36,1.66h-143.58l2.22-1.66ZM455.16,29.61h-139.14l141.36,1.66-2.22-1.66Z"/>
          <path class="cls-6" d="M316.02,29.61l141.36,1.66h-143.58l2.22-1.66ZM455.16,29.61h-139.14l141.36,1.66-2.22-1.66Z"/>
          <path class="cls-9" d="M313.8,31.28l146.35,1.66h-148.01l1.66-1.66ZM457.38,31.28h-143.58l146.35,1.66-2.77-1.66Z"/>
          <path class="cls-6" d="M313.8,31.28l146.35,1.66h-148.01l1.66-1.66ZM457.38,31.28h-143.58l146.35,1.66-2.77-1.66Z"/>
          <path class="cls-9" d="M312.14,32.94l151.89,2.77h-155.77l3.88-2.77ZM460.15,32.94h-148.01l151.89,2.77-3.88-2.77Z"/>
          <path class="cls-6" d="M312.14,32.94l151.89,2.77h-155.77l3.88-2.77ZM460.15,32.94h-148.01l151.89,2.77-3.88-2.77Z"/>
          <path class="cls-9" d="M308.26,35.71l157.99,1.66h-159.65l1.66-1.66ZM464.03,35.71h-155.77l157.99,1.66-2.22-1.66Z"/>
          <path class="cls-6" d="M308.26,35.71l157.99,1.66h-159.65l1.66-1.66ZM464.03,35.71h-155.77l157.99,1.66-2.22-1.66Z"/>
          <path class="cls-9" d="M306.59,37.38l160.76.55h-161.87l1.11-.55ZM466.25,37.38h-159.65l160.76.55-1.11-.55Z"/>
          <path class="cls-6" d="M306.59,37.38l160.76.55h-161.87l1.11-.55ZM466.25,37.38h-159.65l160.76.55-1.11-.55Z"/>
          <path class="cls-9" d="M305.49,37.93l164.64,2.22h-166.86l2.22-2.22ZM467.36,37.93h-161.87l164.64,2.22-2.77-2.22Z"/>
          <path class="cls-6" d="M305.49,37.93l164.64,2.22h-166.86l2.22-2.22ZM467.36,37.93h-161.87l164.64,2.22-2.77-2.22Z"/>
          <path class="cls-9" d="M303.27,40.15l168.52,1.66h-170.19l1.66-1.66ZM470.13,40.15h-166.86l168.52,1.66-1.66-1.66Z"/>
          <path class="cls-6" d="M303.27,40.15l168.52,1.66h-170.19l1.66-1.66ZM470.13,40.15h-166.86l168.52,1.66-1.66-1.66Z"/>
          <path class="cls-9" d="M301.6,41.81l171.85,1.11h-173.51l1.66-1.11ZM471.79,41.81h-170.19l171.85,1.11-1.66-1.11Z"/>
          <path class="cls-6" d="M301.6,41.81l171.85,1.11h-173.51l1.66-1.11ZM471.79,41.81h-170.19l171.85,1.11-1.66-1.11Z"/>
          <path class="cls-9" d="M474.01,43.47h-174.62,174.62ZM299.94,42.92l174.07.55h-174.07v-.55ZM473.45,42.92h-173.51l174.07.55-.55-.55Z"/>
          <path class="cls-6" d="M474.01,43.47h-174.62,174.62ZM299.94,42.92l174.07.55h-174.07v-.55ZM473.45,42.92h-173.51l174.07.55-.55-.55Z"/>
          <path class="cls-9" d="M299.39,43.47l176.84,2.22h-178.5l1.66-2.22ZM474.01,43.47h-174.62l176.84,2.22-2.22-2.22Z"/>
          <path class="cls-6" d="M299.39,43.47l176.84,2.22h-178.5l1.66-2.22ZM474.01,43.47h-174.62l176.84,2.22-2.22-2.22Z"/>
          <path class="cls-9" d="M297.72,45.69l175.73,4.99h-179.61l3.88-4.99ZM476.23,45.69h-178.5l175.73,4.99,2.77-4.99Z"/>
          <path class="cls-6" d="M297.72,45.69l175.73,4.99h-179.61l3.88-4.99ZM476.23,45.69h-178.5l175.73,4.99,2.77-4.99Z"/>
          <path class="cls-9" d="M293.84,50.68l175.18,7.21h-180.72l5.54-7.21ZM473.45,50.68h-179.61l175.18,7.21,4.43-7.21Z"/>
          <path class="cls-6" d="M293.84,50.68l175.18,7.21h-180.72l5.54-7.21ZM473.45,50.68h-179.61l175.18,7.21,4.43-7.21Z"/>
          <path class="cls-9" d="M288.3,57.89l180.16,2.22h-180.72l.55-2.22ZM469.02,57.89h-180.72l180.16,2.22.55-2.22Z"/>
          <path class="cls-6" d="M288.3,57.89l180.16,2.22h-180.72l.55-2.22ZM469.02,57.89h-180.72l180.16,2.22.55-2.22Z"/>
          <path class="cls-9" d="M287.75,60.1l83.15.55h-83.71l.55-.55ZM381.99,60.1h-94.24l83.15.55,11.09-.55Z"/>
          <path class="cls-6" d="M287.75,60.1l83.15.55h-83.71l.55-.55ZM381.99,60.1h-94.24l83.15.55,11.09-.55Z"/>
          <path class="cls-9" d="M388.64,60.1l79.27,1.11h-72.07l-7.21-1.11ZM467.91,60.1h-79.27l79.27,1.11v-1.11Z"/>
          <path class="cls-6" d="M388.64,60.1l79.27,1.11h-72.07l-7.21-1.11ZM467.91,60.1h-79.27l79.27,1.11v-1.11Z"/>
          <path class="cls-9" d="M231.2,62.88H29.42V16.31l201.78,46.57ZM231.2,62.88H29.42h201.78Z"/>
          <path class="cls-6" d="M231.2,62.88H29.42V16.31l201.78,46.57ZM231.2,62.88H29.42h201.78Z"/>
          <polygon class="cls-9" points="29.42 16.31 231.2 16.31 231.2 62.88 29.42 16.31"/>
          <polygon class="cls-6" points="29.42 16.31 231.2 16.31 231.2 62.88 29.42 16.31"/>
          <path class="cls-9" d="M287.19,60.66l73.73,2.77h-74.84l1.11-2.77ZM370.9,60.66h-83.71l73.73,2.77,9.98-2.77Z"/>
          <path class="cls-6" d="M287.19,60.66l73.73,2.77h-74.84l1.11-2.77ZM370.9,60.66h-83.71l73.73,2.77,9.98-2.77Z"/>
          <path class="cls-9" d="M395.84,61.21l70.4,2.77h-58.21l-12.2-2.77ZM467.91,61.21h-72.07l70.4,2.77,1.66-2.77Z"/>
          <path class="cls-6" d="M395.84,61.21l70.4,2.77h-58.21l-12.2-2.77ZM467.91,61.21h-72.07l70.4,2.77,1.66-2.77Z"/>
          <path class="cls-9" d="M286.08,63.43l67.63,2.77h-69.29l1.66-2.77ZM360.92,63.43h-74.84l67.63,2.77,7.21-2.77Z"/>
          <path class="cls-6" d="M286.08,63.43l67.63,2.77h-69.29l1.66-2.77ZM360.92,63.43h-74.84l67.63,2.77,7.21-2.77Z"/>
          <path class="cls-9" d="M284.42,66.2l67.08,1.11h-67.63l.55-1.11ZM353.71,66.2h-69.29l67.08,1.11,2.22-1.11Z"/>
          <path class="cls-6" d="M284.42,66.2l67.08,1.11h-67.63l.55-1.11ZM353.71,66.2h-69.29l67.08,1.11,2.22-1.11Z"/>
          <path class="cls-9" d="M408.04,63.98l55.99,4.43h-44.35l-11.64-4.43ZM466.25,63.98h-58.21l55.99,4.43,2.22-4.43Z"/>
          <path class="cls-6" d="M408.04,63.98l55.99,4.43h-44.35l-11.64-4.43ZM466.25,63.98h-58.21l55.99,4.43,2.22-4.43Z"/>
          <path class="cls-9" d="M283.87,67.31l59.32,5.54h-61.53l2.22-5.54ZM351.5,67.31h-67.63l59.32,5.54,8.32-5.54Z"/>
          <path class="cls-6" d="M283.87,67.31l59.32,5.54h-61.53l2.22-5.54ZM351.5,67.31h-67.63l59.32,5.54,8.32-5.54Z"/>
          <path class="cls-9" d="M419.68,68.42l41.58,4.43h-32.15l-9.42-4.43ZM464.03,68.42h-44.35l41.58,4.43,2.77-4.43Z"/>
          <path class="cls-6" d="M419.68,68.42l41.58,4.43h-32.15l-9.42-4.43ZM464.03,68.42h-44.35l41.58,4.43,2.77-4.43Z"/>
          <path class="cls-9" d="M281.65,72.85l59.87,1.66h-60.98l1.11-1.66ZM343.18,72.85h-61.53l59.87,1.66,1.66-1.66Z"/>
          <path class="cls-6" d="M281.65,72.85l59.87,1.66h-60.98l1.11-1.66ZM343.18,72.85h-61.53l59.87,1.66,1.66-1.66Z"/>
          <path class="cls-9" d="M429.11,72.85l29.38,4.99h-21.62l-7.76-4.99ZM461.26,72.85h-32.15l29.38,4.99,2.77-4.99Z"/>
          <path class="cls-6" d="M429.11,72.85l29.38,4.99h-21.62l-7.76-4.99ZM461.26,72.85h-32.15l29.38,4.99,2.77-4.99Z"/>
          <path class="cls-9" d="M280.54,74.52l56.54,4.43h-57.65l1.11-4.43ZM341.52,74.52h-60.98l56.54,4.43,4.43-4.43Z"/>
          <path class="cls-6" d="M280.54,74.52l56.54,4.43h-57.65l1.11-4.43ZM341.52,74.52h-60.98l56.54,4.43,4.43-4.43Z"/>
          <path class="cls-9" d="M436.87,77.84l20.51,2.22h-17.18l-3.33-2.22ZM458.49,77.84h-21.62l20.51,2.22,1.11-2.22Z"/>
          <path class="cls-6" d="M436.87,77.84l20.51,2.22h-17.18l-3.33-2.22ZM458.49,77.84h-21.62l20.51,2.22,1.11-2.22Z"/>
          <path class="cls-9" d="M440.19,80.06l16.08,1.66h-13.3l-2.77-1.66ZM457.38,80.06h-17.18l16.08,1.66,1.11-1.66Z"/>
          <path class="cls-6" d="M440.19,80.06l16.08,1.66h-13.3l-2.77-1.66ZM457.38,80.06h-17.18l16.08,1.66,1.11-1.66Z"/>
          <path class="cls-9" d="M442.96,81.72l12.2,1.66h-9.98l-2.22-1.66ZM456.27,81.72h-13.3l12.2,1.66,1.11-1.66Z"/>
          <path class="cls-6" d="M442.96,81.72l12.2,1.66h-9.98l-2.22-1.66ZM456.27,81.72h-13.3l12.2,1.66,1.11-1.66Z"/>
          <path class="cls-9" d="M279.43,78.95l54.88,4.99h-55.99l1.11-4.99ZM337.08,78.95h-57.65l54.88,4.99,2.77-4.99Z"/>
          <path class="cls-6" d="M279.43,78.95l54.88,4.99h-55.99l1.11-4.99ZM337.08,78.95h-57.65l54.88,4.99,2.77-4.99Z"/>
          <path class="cls-9" d="M445.18,83.39l9.42,1.66h-7.76l-1.66-1.66ZM455.16,83.39h-9.98l9.42,1.66.55-1.66Z"/>
          <path class="cls-6" d="M445.18,83.39l9.42,1.66h-7.76l-1.66-1.66ZM455.16,83.39h-9.98l9.42,1.66.55-1.66Z"/>
          <path class="cls-9" d="M446.85,85.05l7.21.55h-6.1l-1.11-.55ZM454.61,85.05h-7.76l7.21.55.55-.55Z"/>
          <path class="cls-6" d="M446.85,85.05l7.21.55h-6.1l-1.11-.55ZM454.61,85.05h-7.76l7.21.55.55-.55Z"/>
          <path class="cls-9" d="M278.32,83.94l54.33,2.22h-54.88l.55-2.22ZM334.31,83.94h-55.99l54.33,2.22,1.66-2.22Z"/>
          <path class="cls-6" d="M278.32,83.94l54.33,2.22h-54.88l.55-2.22ZM334.31,83.94h-55.99l54.33,2.22,1.66-2.22Z"/>
          <path class="cls-9" d="M447.95,86.16h6.1l-2.22,3.33-3.88-3.33ZM447.95,85.6v.55h6.1l-6.1-.55Z"/>
          <path class="cls-6" d="M447.95,86.16h6.1l-2.22,3.33-3.88-3.33ZM447.95,85.6v.55h6.1l-6.1-.55Z"/>
          <polygon class="cls-9" points="447.95 85.6 454.05 85.6 454.05 86.16 447.95 85.6"/>
          <polygon class="cls-6" points="447.95 85.6 454.05 85.6 454.05 86.16 447.95 85.6"/>
          <path class="cls-9" d="M277.77,86.16l52.11,6.65h-53.22l1.11-6.65ZM332.65,86.16h-54.88l52.11,6.65,2.77-6.65Z"/>
          <path class="cls-6" d="M277.77,86.16l52.11,6.65h-53.22l1.11-6.65ZM332.65,86.16h-54.88l52.11,6.65,2.77-6.65Z"/>
          <path class="cls-9" d="M276.66,92.81l53.22,1.11h-53.22v-1.11ZM329.88,92.81h-53.22l53.22,1.11v-1.11Z"/>
          <path class="cls-6" d="M276.66,92.81l53.22,1.11h-53.22v-1.11ZM329.88,92.81h-53.22l53.22,1.11v-1.11Z"/>
          <path class="cls-9" d="M276.66,93.92l52.11,7.76h-52.66l.55-7.76ZM329.88,93.92h-53.22l52.11,7.76,1.11-7.76Z"/>
          <path class="cls-6" d="M276.66,93.92l52.11,7.76h-52.66l.55-7.76ZM329.88,93.92h-53.22l52.11,7.76,1.11-7.76Z"/>
          <path class="cls-9" d="M276.1,101.68l52.66,1.11h-52.66v-1.11ZM328.77,101.68h-52.66l52.66,1.11v-1.11Z"/>
          <path class="cls-6" d="M276.1,101.68l52.66,1.11h-52.66v-1.11ZM328.77,101.68h-52.66l52.66,1.11v-1.11Z"/>
          <path class="cls-9" d="M276.1,102.79l53.22,3.88h-52.66l-.55-3.88ZM328.77,102.79h-52.66l53.22,3.88-.55-3.88Z"/>
          <path class="cls-6" d="M276.1,102.79l53.22,3.88h-52.66l-.55-3.88ZM328.77,102.79h-52.66l53.22,3.88-.55-3.88Z"/>
          <path class="cls-9" d="M276.66,106.67l53.77,4.43h-53.77v-4.43ZM329.32,106.67h-52.66l53.77,4.43-1.11-4.43Z"/>
          <path class="cls-6" d="M276.66,106.67l53.77,4.43h-53.77v-4.43ZM329.32,106.67h-52.66l53.77,4.43-1.11-4.43Z"/>
          <path class="cls-9" d="M276.66,111.1l54.33,1.66h-54.33v-1.66ZM330.43,111.1h-53.77l54.33,1.66-.55-1.66Z"/>
          <path class="cls-6" d="M276.66,111.1l54.33,1.66h-54.33v-1.66ZM330.43,111.1h-53.77l54.33,1.66-.55-1.66Z"/>
          <path class="cls-9" d="M276.66,112.77l54.88,2.22h-54.33l-.55-2.22ZM330.99,112.77h-54.33l54.88,2.22-.55-2.22Z"/>
          <path class="cls-6" d="M276.66,112.77l54.88,2.22h-54.33l-.55-2.22ZM330.99,112.77h-54.33l54.88,2.22-.55-2.22Z"/>
          <path class="cls-9" d="M277.21,114.99l56.54,3.88h-55.99l-.55-3.88ZM331.54,114.99h-54.33l56.54,3.88-2.22-3.88Z"/>
          <path class="cls-6" d="M277.21,114.99l56.54,3.88h-55.99l-.55-3.88ZM331.54,114.99h-54.33l56.54,3.88-2.22-3.88Z"/>
          <path class="cls-9" d="M277.77,118.87l58.21,2.77h-57.65l-.55-2.77ZM333.76,118.87h-55.99l58.21,2.77-2.22-2.77Z"/>
          <path class="cls-6" d="M277.77,118.87l58.21,2.77h-57.65l-.55-2.77ZM333.76,118.87h-55.99l58.21,2.77-2.22-2.77Z"/>
          <path class="cls-9" d="M278.32,121.64l61.53,4.43h-60.42l-1.11-4.43ZM335.97,121.64h-57.65l61.53,4.43-3.88-4.43Z"/>
          <path class="cls-6" d="M278.32,121.64l61.53,4.43h-60.42l-1.11-4.43ZM335.97,121.64h-57.65l61.53,4.43-3.88-4.43Z"/>
          <path class="cls-9" d="M279.43,126.07l65.41,4.43h-64.3l-1.11-4.43ZM339.86,126.07h-60.42l65.41,4.43-4.99-4.43Z"/>
          <path class="cls-6" d="M279.43,126.07l65.41,4.43h-64.3l-1.11-4.43ZM339.86,126.07h-60.42l65.41,4.43-4.99-4.43Z"/>
          <path class="cls-9" d="M280.54,130.51l66.52,1.66h-65.41l-1.11-1.66ZM344.84,130.51h-64.3l66.52,1.66-2.22-1.66Z"/>
          <path class="cls-6" d="M280.54,130.51l66.52,1.66h-65.41l-1.11-1.66ZM344.84,130.51h-64.3l66.52,1.66-2.22-1.66Z"/>
          <path class="cls-9" d="M284.42,138.27h72.07-72.07ZM356.49,138.27h-72.07,72.07ZM281.65,132.17l74.84,6.1h-72.07l-2.77-6.1ZM347.06,132.17h-65.41l74.84,6.1-9.42-6.1Z"/>
          <path class="cls-6" d="M284.42,138.27h72.07-72.07ZM356.49,138.27h-72.07,72.07ZM281.65,132.17l74.84,6.1h-72.07l-2.77-6.1ZM347.06,132.17h-65.41l74.84,6.1-9.42-6.1Z"/>
          <path class="cls-9" d="M284.42,138.27l82.04,4.99h-79.27l-2.77-4.99ZM356.49,138.27h-72.07l82.04,4.99-9.98-4.99Z"/>
          <path class="cls-6" d="M284.42,138.27l82.04,4.99h-79.27l-2.77-4.99ZM356.49,138.27h-72.07l82.04,4.99-9.98-4.99Z"/>
          <path class="cls-9" d="M287.19,143.26l83.71,2.22h-82.6l-1.11-2.22ZM366.46,143.26h-79.27l83.71,2.22-4.43-2.22Z"/>
          <path class="cls-6" d="M287.19,143.26l83.71,2.22h-82.6l-1.11-2.22ZM366.46,143.26h-79.27l83.71,2.22-4.43-2.22Z"/>
          <path class="cls-9" d="M288.3,145.47l89.8,2.77h-87.59l-2.22-2.77ZM370.9,145.47h-82.6l89.8,2.77-7.21-2.77Z"/>
          <path class="cls-6" d="M288.3,145.47l89.8,2.77h-87.59l-2.22-2.77ZM370.9,145.47h-82.6l89.8,2.77-7.21-2.77Z"/>
          <path class="cls-9" d="M290.52,148.25l95.35,3.88h-92.58l-2.77-3.88ZM378.11,148.25h-87.59l95.35,3.88-7.76-3.88Z"/>
          <path class="cls-6" d="M290.52,148.25l95.35,3.88h-92.58l-2.77-3.88ZM378.11,148.25h-87.59l95.35,3.88-7.76-3.88Z"/>
          <path class="cls-9" d="M293.29,152.13l96.46,1.66h-94.79l-1.66-1.66ZM385.87,152.13h-92.58l96.46,1.66-3.88-1.66Z"/>
          <path class="cls-6" d="M293.29,152.13l96.46,1.66h-94.79l-1.66-1.66ZM385.87,152.13h-92.58l96.46,1.66-3.88-1.66Z"/>
          <path class="cls-9" d="M294.95,153.79l105.33,3.88h-101.45l-3.88-3.88ZM389.75,153.79h-94.79l105.33,3.88-10.53-3.88Z"/>
          <path class="cls-6" d="M294.95,153.79l105.33,3.88h-101.45l-3.88-3.88ZM389.75,153.79h-94.79l105.33,3.88-10.53-3.88Z"/>
          <path class="cls-9" d="M298.83,157.67l106.99,2.77h-104.22l-2.77-2.77ZM400.28,157.67h-101.45l106.99,2.77-5.54-2.77Z"/>
          <path class="cls-6" d="M298.83,157.67l106.99,2.77h-104.22l-2.77-2.77ZM400.28,157.67h-101.45l106.99,2.77-5.54-2.77Z"/>
          <path class="cls-9" d="M301.6,160.44l110.87,3.33h-107.54l-3.33-3.33ZM405.82,160.44h-104.22l110.87,3.33-6.65-3.33Z"/>
          <path class="cls-6" d="M301.6,160.44l110.87,3.33h-107.54l-3.33-3.33ZM405.82,160.44h-104.22l110.87,3.33-6.65-3.33Z"/>
          <path class="cls-9" d="M304.93,163.77l116.97,4.43h-111.42l-5.54-4.43ZM412.48,163.77h-107.54l116.97,4.43-9.42-4.43Z"/>
          <path class="cls-6" d="M304.93,163.77l116.97,4.43h-111.42l-5.54-4.43ZM412.48,163.77h-107.54l116.97,4.43-9.42-4.43Z"/>
          <path class="cls-9" d="M310.47,168.2l112.53.55h-111.42l-1.11-.55ZM421.9,168.2h-111.42l112.53.55-1.11-.55Z"/>
          <path class="cls-6" d="M310.47,168.2l112.53.55h-111.42l-1.11-.55ZM421.9,168.2h-111.42l112.53.55-1.11-.55Z"/>
          <path class="cls-9" d="M311.58,168.76l120.29,4.43h-113.64l-6.65-4.43ZM423.01,168.76h-111.42l120.29,4.43-8.87-4.43Z"/>
          <path class="cls-6" d="M311.58,168.76l120.29,4.43h-113.64l-6.65-4.43ZM423.01,168.76h-111.42l120.29,4.43-8.87-4.43Z"/>
          <path class="cls-9" d="M318.24,173.19l119.19,3.33h-113.64l-5.54-3.33ZM431.88,173.19h-113.64l119.19,3.33-5.54-3.33Z"/>
          <path class="cls-6" d="M318.24,173.19l119.19,3.33h-113.64l-5.54-3.33ZM431.88,173.19h-113.64l119.19,3.33-5.54-3.33Z"/>
          <path class="cls-9" d="M323.78,176.52l120.29,4.99h-111.98l-8.32-4.99ZM437.42,176.52h-113.64l120.29,4.99-6.65-4.99Z"/>
          <path class="cls-6" d="M323.78,176.52l120.29,4.99h-111.98l-8.32-4.99ZM437.42,176.52h-113.64l120.29,4.99-6.65-4.99Z"/>
          <path class="cls-9" d="M332.09,181.51l113.09.55h-111.98l-1.11-.55ZM444.07,181.51h-111.98l113.09.55-1.11-.55Z"/>
          <path class="cls-6" d="M332.09,181.51l113.09.55h-111.98l-1.11-.55ZM444.07,181.51h-111.98l113.09.55-1.11-.55Z"/>
          <path class="cls-9" d="M333.2,182.06l118.08,4.43h-108.65l-9.42-4.43ZM445.18,182.06h-111.98l118.08,4.43-6.1-4.43Z"/>
          <path class="cls-6" d="M333.2,182.06l118.08,4.43h-108.65l-9.42-4.43ZM445.18,182.06h-111.98l118.08,4.43-6.1-4.43Z"/>
          <path class="cls-9" d="M342.63,186.5l111.42,3.33h-104.77l-6.65-3.33ZM451.28,186.5h-108.65l111.42,3.33-2.77-3.33Z"/>
          <path class="cls-6" d="M342.63,186.5l111.42,3.33h-104.77l-6.65-3.33ZM451.28,186.5h-108.65l111.42,3.33-2.77-3.33Z"/>
          <path class="cls-9" d="M349.28,189.82l108.65,3.33h-100.89l-7.76-3.33ZM454.05,189.82h-104.77l108.65,3.33-3.88-3.33Z"/>
          <path class="cls-6" d="M349.28,189.82l108.65,3.33h-100.89l-7.76-3.33ZM454.05,189.82h-104.77l108.65,3.33-3.88-3.33Z"/>
          <path class="cls-9" d="M357.04,193.15l104.22,3.33h-96.46l-7.76-3.33ZM457.93,193.15h-100.89l104.22,3.33-3.33-3.33Z"/>
          <path class="cls-6" d="M357.04,193.15l104.22,3.33h-96.46l-7.76-3.33ZM457.93,193.15h-100.89l104.22,3.33-3.33-3.33Z"/>
          <path class="cls-9" d="M185.19,199.25H29.42v-46.57l155.77,46.57ZM185.19,199.25H29.42h155.77Z"/>
          <path class="cls-6" d="M185.19,199.25H29.42v-46.57l155.77,46.57ZM185.19,199.25H29.42h155.77Z"/>
          <polygon class="cls-9" points="29.42 152.68 185.19 152.68 185.19 199.25 29.42 152.68"/>
          <polygon class="cls-6" points="29.42 152.68 185.19 152.68 185.19 199.25 29.42 152.68"/>
          <path class="cls-9" d="M364.8,196.48l99.78,3.88h-91.47l-8.32-3.88ZM461.26,196.48h-96.46l99.78,3.88-3.33-3.88Z"/>
          <path class="cls-6" d="M364.8,196.48l99.78,3.88h-91.47l-8.32-3.88ZM461.26,196.48h-96.46l99.78,3.88-3.33-3.88Z"/>
          <path class="cls-9" d="M373.12,200.36l92.58,1.66h-88.14l-4.43-1.66ZM464.58,200.36h-91.47l92.58,1.66-1.11-1.66Z"/>
          <path class="cls-6" d="M373.12,200.36l92.58,1.66h-88.14l-4.43-1.66ZM464.58,200.36h-91.47l92.58,1.66-1.11-1.66Z"/>
          <path class="cls-9" d="M389.19,207.56h80.38-80.38ZM469.57,207.56h-80.38,80.38ZM377.55,202.02l92.02,5.54h-80.38l-11.64-5.54ZM465.69,202.02h-88.14l92.02,5.54-3.88-5.54Z"/>
          <path class="cls-6" d="M389.19,207.56h80.38-80.38ZM469.57,207.56h-80.38,80.38ZM377.55,202.02l92.02,5.54h-80.38l-11.64-5.54ZM465.69,202.02h-88.14l92.02,5.54-3.88-5.54Z"/>
          <path class="cls-9" d="M389.19,207.56l83.71,6.1h-73.17l-10.53-6.1ZM469.57,207.56h-80.38l83.71,6.1-3.33-6.1Z"/>
          <path class="cls-6" d="M389.19,207.56l83.71,6.1h-73.17l-10.53-6.1ZM469.57,207.56h-80.38l83.71,6.1-3.33-6.1Z"/>
          <path class="cls-9" d="M399.73,213.66l74.28,1.66h-70.96l-3.33-1.66ZM472.9,213.66h-73.17l74.28,1.66-1.11-1.66Z"/>
          <path class="cls-6" d="M399.73,213.66l74.28,1.66h-70.96l-3.33-1.66ZM472.9,213.66h-73.17l74.28,1.66-1.11-1.66Z"/>
          <path class="cls-9" d="M403.05,215.32l72.62,4.43h-65.97l-6.65-4.43ZM474.01,215.32h-70.96l72.62,4.43-1.66-4.43Z"/>
          <path class="cls-6" d="M403.05,215.32l72.62,4.43h-65.97l-6.65-4.43ZM474.01,215.32h-70.96l72.62,4.43-1.66-4.43Z"/>
          <path class="cls-9" d="M409.7,219.76l67.63,3.88h-63.2l-4.43-3.88ZM475.67,219.76h-65.97l67.63,3.88-1.66-3.88Z"/>
          <path class="cls-6" d="M409.7,219.76l67.63,3.88h-63.2l-4.43-3.88ZM475.67,219.76h-65.97l67.63,3.88-1.66-3.88Z"/>
          <path class="cls-9" d="M414.14,223.64l63.75,2.77h-60.42l-3.33-2.77ZM477.33,223.64h-63.2l63.75,2.77-.55-2.77Z"/>
          <path class="cls-6" d="M414.14,223.64l63.75,2.77h-60.42l-3.33-2.77ZM477.33,223.64h-63.2l63.75,2.77-.55-2.77Z"/>
          <path class="cls-9" d="M417.46,226.41l61.53,3.88h-58.21l-3.33-3.88ZM477.89,226.41h-60.42l61.53,3.88-1.11-3.88Z"/>
          <path class="cls-6" d="M417.46,226.41l61.53,3.88h-58.21l-3.33-3.88ZM477.89,226.41h-60.42l61.53,3.88-1.11-3.88Z"/>
          <path class="cls-9" d="M420.79,230.29l58.76,2.22h-57.1l-1.66-2.22ZM479,230.29h-58.21l58.76,2.22-.55-2.22Z"/>
          <path class="cls-6" d="M420.79,230.29l58.76,2.22h-57.1l-1.66-2.22ZM479,230.29h-58.21l58.76,2.22-.55-2.22Z"/>
          <path class="cls-9" d="M422.45,232.51l57.1,1.66h-55.99l-1.11-1.66ZM479.55,232.51h-57.1l57.1,1.66v-1.66Z"/>
          <path class="cls-6" d="M422.45,232.51l57.1,1.66h-55.99l-1.11-1.66ZM479.55,232.51h-57.1l57.1,1.66v-1.66Z"/>
          <path class="cls-9" d="M423.56,234.17l56.54,4.43h-54.33l-2.22-4.43ZM479.55,234.17h-55.99l56.54,4.43-.55-4.43Z"/>
          <path class="cls-6" d="M423.56,234.17l56.54,4.43h-54.33l-2.22-4.43ZM479.55,234.17h-55.99l56.54,4.43-.55-4.43Z"/>
          <path class="cls-9" d="M425.78,238.61l54.88,3.33h-53.77l-1.11-3.33ZM480.11,238.61h-54.33l54.88,3.33-.55-3.33Z"/>
          <path class="cls-6" d="M425.78,238.61l54.88,3.33h-53.77l-1.11-3.33ZM480.11,238.61h-54.33l54.88,3.33-.55-3.33Z"/>
          <path class="cls-9" d="M426.89,241.93l53.77,1.11h-53.22l-.55-1.11ZM480.66,241.93h-53.77l53.77,1.11v-1.11Z"/>
          <path class="cls-6" d="M426.89,241.93l53.77,1.11h-53.22l-.55-1.11ZM480.66,241.93h-53.77l53.77,1.11v-1.11Z"/>
          <path class="cls-9" d="M427.44,243.04l53.77,4.43h-53.22l-.55-4.43ZM480.66,243.04h-53.22l53.77,4.43-.55-4.43Z"/>
          <path class="cls-6" d="M427.44,243.04l53.77,4.43h-53.22l-.55-4.43ZM480.66,243.04h-53.22l53.77,4.43-.55-4.43Z"/>
          <path class="cls-9" d="M428,247.48l53.22,3.88h-52.66l-.55-3.88ZM481.21,247.48h-53.22l53.22,3.88v-3.88Z"/>
          <path class="cls-6" d="M428,247.48l53.22,3.88h-52.66l-.55-3.88ZM481.21,247.48h-53.22l53.22,3.88v-3.88Z"/>
          <path class="cls-9" d="M428.55,251.36l52.66,1.66h-52.66v-1.66ZM481.21,251.36h-52.66l52.66,1.66v-1.66Z"/>
          <path class="cls-6" d="M428.55,251.36l52.66,1.66h-52.66v-1.66ZM481.21,251.36h-52.66l52.66,1.66v-1.66Z"/>
          <polygon class="cls-9" points="297.72 259.12 299.39 260.78 296.62 260.78 297.72 259.12"/>
          <polygon class="cls-6" points="297.72 259.12 299.39 260.78 296.62 260.78 297.72 259.12"/>
          <path class="cls-9" d="M428,260.78h52.66-52.66ZM480.66,260.78h-52.66,52.66ZM428.55,253.02l52.11,7.76h-52.66l.55-7.76ZM481.21,253.02h-52.66l52.11,7.76.55-7.76Z"/>
          <path class="cls-6" d="M428,260.78h52.66-52.66ZM480.66,260.78h-52.66,52.66ZM428.55,253.02l52.11,7.76h-52.66l.55-7.76ZM481.21,253.02h-52.66l52.11,7.76.55-7.76Z"/>
          <path class="cls-9" d="M296.62,260.78l4.43,1.66h-6.1l1.66-1.66ZM299.39,260.78h-2.77l4.43,1.66-1.66-1.66Z"/>
          <path class="cls-6" d="M296.62,260.78l4.43,1.66h-6.1l1.66-1.66ZM299.39,260.78h-2.77l4.43,1.66-1.66-1.66Z"/>
          <path class="cls-9" d="M294.95,262.44l6.65.55h-6.65v-.55ZM301.05,262.44h-6.1l6.65.55-.55-.55Z"/>
          <path class="cls-6" d="M294.95,262.44l6.65.55h-6.65v-.55ZM301.05,262.44h-6.1l6.65.55-.55-.55Z"/>
          <path class="cls-9" d="M294.95,263l7.76,1.11h-8.87l1.11-1.11ZM301.6,263h-6.65l7.76,1.11-1.11-1.11Z"/>
          <path class="cls-6" d="M294.95,263l7.76,1.11h-8.87l1.11-1.11ZM301.6,263h-6.65l7.76,1.11-1.11-1.11Z"/>
          <path class="cls-9" d="M293.84,264.11l10.53,1.66h-11.64l1.11-1.66ZM302.71,264.11h-8.87l10.53,1.66-1.66-1.66Z"/>
          <path class="cls-6" d="M293.84,264.11l10.53,1.66h-11.64l1.11-1.66ZM302.71,264.11h-8.87l10.53,1.66-1.66-1.66Z"/>
          <path class="cls-9" d="M292.74,265.77l14.41,1.66h-16.08l1.66-1.66ZM304.38,265.77h-11.64l14.41,1.66-2.77-1.66Z"/>
          <path class="cls-6" d="M292.74,265.77l14.41,1.66h-16.08l1.66-1.66ZM304.38,265.77h-11.64l14.41,1.66-2.77-1.66Z"/>
          <path class="cls-9" d="M428,260.78l51.55,7.21h-53.77l2.22-7.21ZM480.66,260.78h-52.66l51.55,7.21,1.11-7.21Z"/>
          <path class="cls-6" d="M428,260.78l51.55,7.21h-53.77l2.22-7.21ZM480.66,260.78h-52.66l51.55,7.21,1.11-7.21Z"/>
          <path class="cls-9" d="M425.78,267.99l53.77,2.22h-54.88l1.11-2.22ZM479.55,267.99h-53.77l53.77,2.22v-2.22Z"/>
          <path class="cls-6" d="M425.78,267.99l53.77,2.22h-54.88l1.11-2.22ZM479.55,267.99h-53.77l53.77,2.22v-2.22Z"/>
          <path class="cls-9" d="M291.07,267.43l19.4,2.77h-21.07l1.66-2.77ZM307.15,267.43h-16.08l19.4,2.77-3.33-2.77Z"/>
          <path class="cls-6" d="M291.07,267.43l19.4,2.77h-21.07l1.66-2.77ZM307.15,267.43h-16.08l19.4,2.77-3.33-2.77Z"/>
          <path class="cls-9" d="M289.41,270.2l24.39,2.77h-26.61l2.22-2.77ZM310.47,270.2h-21.07l24.39,2.77-3.33-2.77Z"/>
          <path class="cls-6" d="M289.41,270.2l24.39,2.77h-26.61l2.22-2.77ZM310.47,270.2h-21.07l24.39,2.77-3.33-2.77Z"/>
          <path class="cls-9" d="M424.67,270.2l53.22,4.99h-55.99l2.77-4.99ZM479.55,270.2h-54.88l53.22,4.99,1.66-4.99Z"/>
          <path class="cls-6" d="M424.67,270.2l53.22,4.99h-55.99l2.77-4.99ZM479.55,270.2h-54.88l53.22,4.99,1.66-4.99Z"/>
          <path class="cls-9" d="M287.19,272.98l36.03,6.1h-40.47l4.43-6.1ZM313.8,272.98h-26.61l36.03,6.1-9.42-6.1Z"/>
          <path class="cls-6" d="M287.19,272.98l36.03,6.1h-40.47l4.43-6.1ZM313.8,272.98h-26.61l36.03,6.1-9.42-6.1Z"/>
          <path class="cls-9" d="M421.9,275.19l55.44,3.88h-58.76l3.33-3.88ZM477.89,275.19h-55.99l55.44,3.88.55-3.88Z"/>
          <path class="cls-6" d="M421.9,275.19l55.44,3.88h-58.76l3.33-3.88ZM477.89,275.19h-55.99l55.44,3.88.55-3.88Z"/>
          <path class="cls-9" d="M418.57,279.07l57.65,2.77h-59.87l2.22-2.77ZM477.33,279.07h-58.76l57.65,2.77,1.11-2.77Z"/>
          <path class="cls-6" d="M418.57,279.07l57.65,2.77h-59.87l2.22-2.77ZM477.33,279.07h-58.76l57.65,2.77,1.11-2.77Z"/>
          <path class="cls-9" d="M282.76,279.07l51.55,5.54h-55.99l4.43-5.54ZM323.22,279.07h-40.47l51.55,5.54-11.09-5.54Z"/>
          <path class="cls-6" d="M282.76,279.07l51.55,5.54h-55.99l4.43-5.54ZM323.22,279.07h-40.47l51.55,5.54-11.09-5.54Z"/>
          <path class="cls-9" d="M474.01,287.39h-64.86,64.86ZM416.36,281.85l57.65,5.54h-64.3l6.65-5.54ZM476.23,281.85h-59.87l57.65,5.54,2.22-5.54Z"/>
          <path class="cls-6" d="M474.01,287.39h-64.86,64.86ZM416.36,281.85l57.65,5.54h-64.3l6.65-5.54ZM476.23,281.85h-59.87l57.65,5.54,2.22-5.54Z"/>
          <path class="cls-9" d="M278.32,284.62l69.29,5.54h-73.17l3.88-5.54ZM334.31,284.62h-55.99l69.29,5.54-13.3-5.54Z"/>
          <path class="cls-6" d="M278.32,284.62l69.29,5.54h-73.17l3.88-5.54ZM334.31,284.62h-55.99l69.29,5.54-13.3-5.54Z"/>
          <path class="cls-9" d="M409.15,287.39l63.2,3.88h-71.51l8.32-3.88ZM474.01,287.39h-64.86l63.2,3.88,1.66-3.88Z"/>
          <path class="cls-6" d="M409.15,287.39l63.2,3.88h-71.51l8.32-3.88ZM474.01,287.39h-64.86l63.2,3.88,1.66-3.88Z"/>
          <path class="cls-9" d="M274.44,290.16l80.38,1.66h-82.04l1.66-1.66ZM347.62,290.16h-73.17l80.38,1.66-7.21-1.66Z"/>
          <path class="cls-6" d="M274.44,290.16l80.38,1.66h-82.04l1.66-1.66ZM347.62,290.16h-73.17l80.38,1.66-7.21-1.66Z"/>
          <path class="cls-9" d="M400.83,291.27l70.4,1.66h-75.39l4.99-1.66ZM472.35,291.27h-71.51l70.4,1.66,1.11-1.66Z"/>
          <path class="cls-6" d="M400.83,291.27l70.4,1.66h-75.39l4.99-1.66ZM472.35,291.27h-71.51l70.4,1.66,1.11-1.66Z"/>
          <path class="cls-9" d="M272.78,291.82l89.25,1.66h-90.36l1.11-1.66ZM354.82,291.82h-82.04l89.25,1.66-7.21-1.66Z"/>
          <path class="cls-6" d="M272.78,291.82l89.25,1.66h-90.36l1.11-1.66ZM354.82,291.82h-82.04l89.25,1.66-7.21-1.66Z"/>
          <path class="cls-9" d="M395.84,292.93l74.84,1.11h-80.38l5.54-1.11ZM471.24,292.93h-75.39l74.84,1.11.55-1.11Z"/>
          <path class="cls-6" d="M395.84,292.93l74.84,1.11h-80.38l5.54-1.11ZM471.24,292.93h-75.39l74.84,1.11.55-1.11Z"/>
          <path class="cls-9" d="M271.67,293.49l98.67,1.11h-99.23l.55-1.11ZM362.03,293.49h-90.36l98.67,1.11-8.32-1.11Z"/>
          <path class="cls-6" d="M271.67,293.49l98.67,1.11h-99.23l.55-1.11ZM362.03,293.49h-90.36l98.67,1.11-8.32-1.11Z"/>
          <path class="cls-9" d="M390.3,294.04l80.38.55h-85.92l5.54-.55ZM470.68,294.04h-80.38l80.38.55v-.55Z"/>
          <path class="cls-6" d="M390.3,294.04l80.38.55h-85.92l5.54-.55ZM470.68,294.04h-80.38l80.38.55v-.55Z"/>
          <path class="cls-9" d="M384.76,294.6l85.92.55h-92.58l6.65-.55ZM470.68,294.6h-85.92l85.92.55v-.55Z"/>
          <path class="cls-6" d="M384.76,294.6l85.92.55h-92.58l6.65-.55ZM470.68,294.6h-85.92l85.92.55v-.55Z"/>
          <path class="cls-9" d="M271.12,294.6l106.99.55h-107.54l.55-.55ZM370.34,294.6h-99.23l106.99.55-7.76-.55Z"/>
          <path class="cls-6" d="M271.12,294.6l106.99.55h-107.54l.55-.55ZM370.34,294.6h-99.23l106.99.55-7.76-.55Z"/>
          <path class="cls-9" d="M270.56,295.15l199.57.55h-199.57v-.55ZM470.68,295.15h-200.12l199.57.55.55-.55Z"/>
          <path class="cls-6" d="M270.56,295.15l199.57.55h-199.57v-.55ZM470.68,295.15h-200.12l199.57.55.55-.55Z"/>
          <path class="cls-9" d="M270.56,295.7l197.35,3.33h-200.12l2.77-3.33ZM470.13,295.7h-199.57l197.35,3.33,2.22-3.33Z"/>
          <path class="cls-6" d="M270.56,295.7l197.35,3.33h-200.12l2.77-3.33ZM470.13,295.7h-199.57l197.35,3.33,2.22-3.33Z"/>
          <path class="cls-9" d="M267.79,299.03l199.01,2.22h-196.79l-2.22-2.22ZM467.91,299.03h-200.12l199.01,2.22,1.11-2.22Z"/>
          <path class="cls-6" d="M267.79,299.03l199.01,2.22h-196.79l-2.22-2.22ZM467.91,299.03h-200.12l199.01,2.22,1.11-2.22Z"/>
          <path class="cls-9" d="M270.01,301.25l196.24,1.11h-195.13l-1.11-1.11ZM466.8,301.25h-196.79l196.24,1.11.55-1.11Z"/>
          <path class="cls-6" d="M270.01,301.25l196.24,1.11h-195.13l-1.11-1.11ZM466.8,301.25h-196.79l196.24,1.11.55-1.11Z"/>
          <path class="cls-9" d="M271.12,302.36l194.58,1.11h-194.02l-.55-1.11ZM466.25,302.36h-195.13l194.58,1.11.55-1.11Z"/>
          <path class="cls-6" d="M271.12,302.36l194.58,1.11h-194.02l-.55-1.11ZM466.25,302.36h-195.13l194.58,1.11.55-1.11Z"/>
          <path class="cls-9" d="M271.67,303.47l193.47.55h-192.91l-.55-.55ZM465.69,303.47h-194.02l193.47.55.55-.55Z"/>
          <path class="cls-6" d="M271.67,303.47l193.47.55h-192.91l-.55-.55ZM465.69,303.47h-194.02l193.47.55.55-.55Z"/>
          <path class="cls-9" d="M272.22,304.02l191.25,2.22h-188.48l-2.77-2.22ZM465.14,304.02h-192.91l191.25,2.22,1.66-2.22Z"/>
          <path class="cls-6" d="M272.22,304.02l191.25,2.22h-188.48l-2.77-2.22ZM465.14,304.02h-192.91l191.25,2.22,1.66-2.22Z"/>
          <path class="cls-9" d="M275,306.24l186.26,2.77h-183.49l-2.77-2.77ZM463.48,306.24h-188.48l186.26,2.77,2.22-2.77Z"/>
          <path class="cls-6" d="M275,306.24l186.26,2.77h-183.49l-2.77-2.77ZM463.48,306.24h-188.48l186.26,2.77,2.22-2.77Z"/>
          <path class="cls-9" d="M277.77,309.01l181.83,1.11h-179.61l-2.22-1.11ZM461.26,309.01h-183.49l181.83,1.11,1.66-1.11Z"/>
          <path class="cls-6" d="M277.77,309.01l181.83,1.11h-179.61l-2.22-1.11ZM461.26,309.01h-183.49l181.83,1.11,1.66-1.11Z"/>
          <path class="cls-9" d="M279.99,310.12l177.95,2.22h-175.73l-2.22-2.22ZM459.6,310.12h-179.61l177.95,2.22,1.66-2.22Z"/>
          <path class="cls-6" d="M279.99,310.12l177.95,2.22h-175.73l-2.22-2.22ZM459.6,310.12h-179.61l177.95,2.22,1.66-2.22Z"/>
          <path class="cls-9" d="M282.2,312.33l172.4,3.33h-167.97l-4.43-3.33ZM457.93,312.33h-175.73l172.4,3.33,3.33-3.33Z"/>
          <path class="cls-6" d="M282.2,312.33l172.4,3.33h-167.97l-4.43-3.33ZM457.93,312.33h-175.73l172.4,3.33,3.33-3.33Z"/>
          <path class="cls-9" d="M286.64,315.66l166.86,1.11h-164.64l-2.22-1.11ZM454.61,315.66h-167.97l166.86,1.11,1.11-1.11Z"/>
          <path class="cls-6" d="M286.64,315.66l166.86,1.11h-164.64l-2.22-1.11ZM454.61,315.66h-167.97l166.86,1.11,1.11-1.11Z"/>
          <path class="cls-9" d="M288.85,316.77l161.32,2.77h-157.44l-3.88-2.77ZM453.5,316.77h-164.64l161.32,2.77,3.33-2.77Z"/>
          <path class="cls-6" d="M288.85,316.77l161.32,2.77h-157.44l-3.88-2.77ZM453.5,316.77h-164.64l161.32,2.77,3.33-2.77Z"/>
          <path class="cls-9" d="M292.74,319.54l153,3.88h-146.9l-6.1-3.88ZM450.17,319.54h-157.44l153,3.88,4.43-3.88Z"/>
          <path class="cls-6" d="M292.74,319.54l153,3.88h-146.9l-6.1-3.88ZM450.17,319.54h-157.44l153,3.88,4.43-3.88Z"/>
          <path class="cls-9" d="M298.83,323.42l144.69,1.66h-141.36l-3.33-1.66ZM445.74,323.42h-146.9l144.69,1.66,2.22-1.66Z"/>
          <path class="cls-6" d="M298.83,323.42l144.69,1.66h-141.36l-3.33-1.66ZM445.74,323.42h-146.9l144.69,1.66,2.22-1.66Z"/>
          <path class="cls-9" d="M302.16,325.09l137.48,2.22h-133.6l-3.88-2.22ZM443.52,325.09h-141.36l137.48,2.22,3.88-2.22Z"/>
          <path class="cls-6" d="M302.16,325.09l137.48,2.22h-133.6l-3.88-2.22ZM443.52,325.09h-141.36l137.48,2.22,3.88-2.22Z"/>
          <path class="cls-9" d="M306.04,327.3l127.5,3.88h-119.74l-7.76-3.88ZM439.64,327.3h-133.6l127.5,3.88,6.1-3.88Z"/>
          <path class="cls-6" d="M306.04,327.3l127.5,3.88h-119.74l-7.76-3.88ZM439.64,327.3h-133.6l127.5,3.88,6.1-3.88Z"/>
          <path class="cls-9" d="M313.8,331.18l118.63.55h-116.41l-2.22-.55ZM433.54,331.18h-119.74l118.63.55,1.11-.55Z"/>
          <path class="cls-6" d="M313.8,331.18l118.63.55h-116.41l-2.22-.55ZM433.54,331.18h-119.74l118.63.55,1.11-.55Z"/>
          <path class="cls-9" d="M316.02,331.74l109.76,2.77h-103.11l-6.65-2.77ZM432.43,331.74h-116.41l109.76,2.77,6.65-2.77Z"/>
          <path class="cls-6" d="M316.02,331.74l109.76,2.77h-103.11l-6.65-2.77ZM432.43,331.74h-116.41l109.76,2.77,6.65-2.77Z"/>
          <path class="cls-9" d="M322.67,334.51l97.01,2.77h-88.7l-8.32-2.77ZM425.78,334.51h-103.11l97.01,2.77,6.1-2.77Z"/>
          <path class="cls-6" d="M322.67,334.51l97.01,2.77h-88.7l-8.32-2.77ZM425.78,334.51h-103.11l97.01,2.77,6.1-2.77Z"/>
          <path class="cls-9" d="M330.99,337.28l87.03.55h-85.92l-1.11-.55ZM419.68,337.28h-88.7l87.03.55,1.66-.55Z"/>
          <path class="cls-6" d="M330.99,337.28l87.03.55h-85.92l-1.11-.55ZM419.68,337.28h-88.7l87.03.55,1.66-.55Z"/>
          <path class="cls-9" d="M29.42,292.38l201.78,46.57H29.42v-46.57ZM231.2,292.38H29.42l201.78,46.57v-46.57Z"/>
          <path class="cls-6" d="M29.42,292.38l201.78,46.57H29.42v-46.57ZM231.2,292.38H29.42l201.78,46.57v-46.57Z"/>
          <path class="cls-9" d="M332.09,337.84l77.05,2.77h-66.52l-10.53-2.77ZM418.02,337.84h-85.92l77.05,2.77,8.87-2.77Z"/>
          <path class="cls-6" d="M332.09,337.84l77.05,2.77h-66.52l-10.53-2.77ZM418.02,337.84h-85.92l77.05,2.77,8.87-2.77Z"/>
          <path class="cls-9" d="M342.63,340.61l63.75.55h-59.87l-3.88-.55ZM409.15,340.61h-66.52l63.75.55,2.77-.55Z"/>
          <path class="cls-6" d="M342.63,340.61l63.75.55h-59.87l-3.88-.55ZM409.15,340.61h-66.52l63.75.55,2.77-.55Z"/>
          <path class="cls-9" d="M346.51,341.16l52.11,1.11h-45.46l-6.65-1.11ZM406.38,341.16h-59.87l52.11,1.11,7.76-1.11Z"/>
          <path class="cls-6" d="M346.51,341.16l52.11,1.11h-45.46l-6.65-1.11ZM406.38,341.16h-59.87l52.11,1.11,7.76-1.11Z"/>
          <path class="cls-9" d="M353.16,342.27l39.36,1.11h-30.49l-8.87-1.11ZM398.62,342.27h-45.46l39.36,1.11,6.1-1.11Z"/>
          <path class="cls-6" d="M353.16,342.27l39.36,1.11h-30.49l-8.87-1.11ZM398.62,342.27h-45.46l39.36,1.11,6.1-1.11Z"/>
          <path class="cls-9" d="M364.8,343.93h21.62l-8.87.55-12.75-.55ZM362.03,343.38l2.77.55h21.62l-24.39-.55Z"/>
          <path class="cls-6" d="M364.8,343.93h21.62l-8.87.55-12.75-.55ZM362.03,343.38l2.77.55h21.62l-24.39-.55Z"/>
          <polygon class="cls-9" points="362.03 343.38 392.52 343.38 386.42 343.93 362.03 343.38"/>
          <polygon class="cls-6" points="362.03 343.38 392.52 343.38 386.42 343.93 362.03 343.38"/>
        </g>
      </g>
    </g>
  </g>
</svg>